<?xml version="1.0" encoding="utf-8"?>
<!-- Generator: Adobe Illustrator 23.0.0, SVG Export Plug-In . SVG Version: 6.00 Build 0)  -->
<svg version="1.1" id="Слой_1" xmlns="http://www.w3.org/2000/svg" xmlns:xlink="http://www.w3.org/1999/xlink" x="0px" y="0px"
	 viewBox="0 0 90 90" style="enable-background:new 0 0 90 90;" xml:space="preserve">
<style type="text/css">
	.st0{fill:#FFFFFF;}
	.st1{fill:#70C156;}
</style>
<path class="st0" d="M45,4.5C22.6,4.5,4.5,22.6,4.5,45S22.6,85.5,45,85.5S85.5,67.4,85.5,45S67.4,4.5,45,4.5z M49.6,17.9l-1.3,38.9
	h-6.5l-1.3-38.9H49.6z M45,73.4c-3.3,0-5.6-2.2-5.6-5c0-2.8,2.4-5,5.6-5c3.4,0,5.6,2.1,5.6,5C50.6,71.3,48.4,73.4,45,73.4z"/>
<g>
	<path class="st1" d="M45,5.4C23.1,5.4,5.4,23.1,5.4,45S23.1,84.6,45,84.6S84.6,66.9,84.6,45S66.9,5.4,45,5.4z M49.5,18.5l-1.3,38
		h-6.3l-1.3-38H49.5z M45,72.8c-3.2,0-5.5-2.1-5.5-4.9c0-2.8,2.3-4.9,5.5-4.9c3.3,0,5.5,2.1,5.5,4.9C50.5,70.7,48.3,72.8,45,72.8z"
		/>
</g>
<ellipse class="st0" cx="45" cy="67.9" rx="5.5" ry="4.9"/>
<polygon class="st0" points="40.6,18.5 49.4,18.5 48.2,56.5 41.8,56.5 "/>
</svg>
