<?xml version="1.0" encoding="utf-8"?>
<svg viewBox="0 0 90 90" x="0px" y="0px" xmlns="http://www.w3.org/2000/svg">
  <g>
    <path fill="#ff4336" d="M48,3A45,45,0,1,0,93,48,45,45,0,0,0,48,3Zm5.07,14.86L51.59,61.1H44.41L42.93,17.86ZM48,79.57c-3.69,0-6.23-2.43-6.23-5.58S44.41,68.4,48,68.4c3.8,0,6.23,2.34,6.23,5.59S51.8,79.57,48,79.57Z" transform="translate(-3 -3)"/>
  </g>
  <ellipse style="fill: rgb(255, 255, 255);" cx="45.036" cy="70.972" rx="6.305" ry="5.794"/>
  <polygon style="stroke: rgb(0, 0, 0); paint-order: fill; fill-rule: nonzero; stroke-width: 0px; fill: rgb(255, 255, 255);" points="40.01599884033203 14.807000160217285 50.20800018310547 14.871000289916992 48.486000061035156 58.12099838256836 41.23500061035156 58.097999572753906" transform="matrix(0.999982, -0.005954, 0.005954, 0.999982, -0.217098, 0.269728)"/>
</svg>