<svg xmlns:dc="http://purl.org/dc/elements/1.1/" xmlns:cc="http://creativecommons.org/ns#" xmlns:rdf="http://www.w3.org/1999/02/22-rdf-syntax-ns#" xmlns:svg="http://www.w3.org/2000/svg" xmlns="http://www.w3.org/2000/svg" xmlns:sodipodi="http://sodipodi.sourceforge.net/DTD/sodipodi-0.dtd" xmlns:inkscape="http://www.inkscape.org/namespaces/inkscape" version="1.1" x="0px" y="0px" viewBox="0 0 100 100"><g transform="translate(0,-952.36218)"><path style="text-indent:0;text-transform:none;direction:ltr;block-progression:tb;baseline-shift:baseline;color:#000000;enable-background:accumulate;" d="m 49.75,961.36921 a 2.0001999,2.0001999 0 0 0 -0.6562,0.21875 l -42.999999,22 a 2.0001999,2.0001999 0 0 0 0,3.5625 l 13.124999,6.71875 -13.124999,6.71869 a 2.0001999,2.0001999 0 0 0 0,3.5625 l 13.124999,6.7188 -13.124999,6.7188 a 2.0001999,2.0001999 0 0 0 0,3.5625 l 42.999999,22 a 2.0001999,2.0001999 0 0 0 1.8124,0 l 42.999999,-22 a 2.0001999,2.0001999 0 0 0 0,-3.5625 l -13.124999,-6.7188 13.124999,-6.7188 a 2.0001999,2.0001999 0 0 0 0,-3.5625 L 80.7812,993.86921 93.906199,987.15046 a 2.0001999,2.0001999 0 0 0 0,-3.5625 l -42.999999,-22 A 2.0001999,2.0001999 0 0 0 49.75,961.36921 z m 0.25,4.25 38.624999,19.75 L 50,1005.1192 11.375001,985.36921 50,965.61921 z m -26.375,30.5 25.4688,13.03129 a 2.0001999,2.0001999 0 0 0 1.8124,0 L 76.375,996.11921 88.624999,1002.3692 50,1022.1192 11.375001,1002.3692 23.625,996.11921 z m 0,16.99999 25.4688,13.0313 a 2.0001999,2.0001999 0 0 0 1.8124,0 l 25.4688,-13.0313 12.249999,6.25 -38.624999,19.75 -38.624999,-19.75 12.249999,-6.25 z" fill="#000000" fill-opacity="1" stroke="none" marker="none" visibility="visible" display="inline" overflow="visible"/></g></svg>